<?xml version="1.0" encoding="iso-8859-1"?>
<!-- Generator: Adobe Illustrator 18.1.1, SVG Export Plug-In . SVG Version: 6.00 Build 0)  -->
<svg version="1.1" id="Capa_1" xmlns="http://www.w3.org/2000/svg" xmlns:xlink="http://www.w3.org/1999/xlink" x="0px" y="0px"
	 viewBox="0 0 24.253 24.253" style="enable-background:new 0 0 24.253 24.253;" xml:space="preserve">
<g>
	<path style="fill:#030104;" d="M23.764,1.568H0.492C0.221,1.568,0,1.788,0,2.056v20.139c0,0.27,0.221,0.491,0.492,0.491h23.271
		c0.271,0,0.49-0.221,0.49-0.491V2.056C24.254,1.788,24.035,1.568,23.764,1.568z M22.418,17.002h-1.471
		c-0.861-2.201-1.918-5.287-3.523-4.875c-1.883,0.48-2.82,4.875-2.82,4.875s-0.963-4.959-3.619-7.615
		C8.33,6.732,5.76,17.002,5.76,17.002H2.246V3.794h20.172C22.418,3.794,22.418,17.002,22.418,17.002z"/>
	<path style="fill:#030104;" d="M5.504,8.275c0.908,0,1.643-0.738,1.643-1.646c0-0.91-0.734-1.646-1.643-1.646
		c-0.914,0-1.648,0.736-1.648,1.646C3.855,7.537,4.59,8.275,5.504,8.275z"/>
	<path style="fill:#030104;" d="M16.543,7.79c0.371,0,0.717-0.038,1.025-0.101c0.361,0.155,0.795,0.247,1.27,0.247
		c1.211,0,2.193-0.592,2.193-1.324c0-0.731-0.982-1.324-2.193-1.324c-0.455,0-0.879,0.083-1.229,0.227
		c-0.143-0.14-0.338-0.227-0.553-0.227h-0.318c-0.408,0-0.729,0.309-0.775,0.702C14.98,6.092,14.25,6.448,14.25,6.874
		C14.25,7.381,15.277,7.79,16.543,7.79z"/>
</g>
<g>
</g>
<g>
</g>
<g>
</g>
<g>
</g>
<g>
</g>
<g>
</g>
<g>
</g>
<g>
</g>
<g>
</g>
<g>
</g>
<g>
</g>
<g>
</g>
<g>
</g>
<g>
</g>
<g>
</g>
</svg>
